<?xml version="1.0" ?>
<!-- Uploaded to: SVG Repo, www.svgrepo.com, Generator: SVG Repo Mixer Tools -->
<svg fill="#000000" width="800px" height="800px" viewBox="0 0 100 100" version="1.1" xml:space="preserve" xmlns="http://www.w3.org/2000/svg" xmlns:xlink="http://www.w3.org/1999/xlink">
<g id="hairdryer"/>
<g id="scissor"/>
<g id="razor"/>
<g id="razor_blade_1_"/>
<g id="comb"/>
<g id="shaving_machine"/>
<g id="barbershop"/>
<g id="barber_pole"/>
<g id="hairstylist"/>
<g id="kids"/>
<g id="mature"/>
<g id="woman">
<g>
<path d="M89.6,76.2c-0.4-4.8-3.8-8.8-8.5-9.9L73,64.5V40c0-0.2,0-0.3-0.1-0.4c1.3-1.1,2.1-2.7,2.1-4.6c0-1.8-0.8-3.4-2-4.5V21    c0-9.4-7.6-17-17-17H44c-9.4,0-17,7.6-17,17v9.5c-1.2,1.1-2,2.7-2,4.5c0,1.8,0.8,3.5,2.1,4.6C27,39.7,27,39.8,27,40v24.5l-8.1,1.9    c-4.7,1.1-8.1,5.1-8.5,9.9L9,94.9c0,0.3,0.1,0.6,0.3,0.8C9.5,95.9,9.7,96,10,96h40h40c0.3,0,0.5-0.1,0.7-0.3    c0.2-0.2,0.3-0.5,0.3-0.8L89.6,76.2z M71,64l-12-2.8V56c0-0.1,0-0.2-0.1-0.2c5.4-2.9,9.3-8.4,9.9-14.8H69c0.7,0,1.4-0.1,2-0.4V64z     M50,72c-8.8,0-12.1-6-12.9-7.8l4.2-1c0.7,1.7,2.9,4.8,8.6,4.8c0,0,0,0,0,0c0,0,0,0,0,0c5.7,0,7.9-3.2,8.6-4.8l4.2,1    C62.1,65.9,58.7,72,50,72z M33,30L33,30c4.5-0.1,20.2-0.5,25.6-4.3c0.9,1.6,3.1,4,8.4,4.3v0v9c0,9.4-7.6,17-17,17s-17-7.6-17-17    V30z M59,19c1.1,0,2,0.9,2,2s-0.9,2-2,2s-2-0.9-2-2S57.9,19,59,19z M50,58c2.5,0,4.8-0.5,7-1.4v5.2c-0.2,0.6-1.4,4.1-7,4.1    c0,0,0,0,0,0c0,0,0,0,0,0c-5.6,0-6.8-3.5-7-4.1v-5.2C45.2,57.5,47.5,58,50,58z M69,39v-8c2.2,0,4,1.8,4,4S71.2,39,69,39z M29,21    c0-8.3,6.7-15,15-15h12c8.3,0,15,6.7,15,15v8.4c-0.6-0.2-1.3-0.4-2-0.4c0-0.6-0.4-1-1-1c-5,0-6.9-2-7.6-3.3c1.5-0.6,2.6-2,2.6-3.7    c0-1.9-1.3-3.4-3-3.9V14c0-0.6-0.4-1-1-1s-1,0.4-1,1v3.1c-1.7,0.4-3,2-3,3.9c0,1.4,0.8,2.7,1.9,3.4C52,27.3,37.6,28,32,28    c-0.6,0-1,0.4-1,1c-0.7,0-1.4,0.1-2,0.4V21z M31,31v8c-2.2,0-4-1.8-4-4S28.8,31,31,31z M29,40.6c0.6,0.2,1.3,0.4,2,0.4h0.1    c0.7,6.4,4.5,11.8,9.9,14.8c0,0.1-0.1,0.2-0.1,0.2v5.2L29,64V40.6z M75,94v-7c0-0.6-0.4-1-1-1s-1,0.4-1,1v7H50H27v-7    c0-0.6-0.4-1-1-1s-1,0.4-1,1v7H11.1l1.4-17.6c0.3-3.9,3.1-7.2,6.9-8.1l15.8-3.7C35.8,66.2,39.5,74,50,74s14.2-7.8,14.8-9.4    l15.8,3.7c3.8,0.9,6.6,4.1,6.9,8.1L88.9,94H75z"/>
<path d="M42,41c2.2,0,4-1.8,4-4s-1.8-4-4-4s-4,1.8-4,4S39.8,41,42,41z M42,35c1.1,0,2,0.9,2,2s-0.9,2-2,2s-2-0.9-2-2    S40.9,35,42,35z"/>
<path d="M58,41c2.2,0,4-1.8,4-4s-1.8-4-4-4s-4,1.8-4,4S55.8,41,58,41z M58,35c1.1,0,2,0.9,2,2s-0.9,2-2,2s-2-0.9-2-2    S56.9,35,58,35z"/>
<path d="M44.2,48.4c-0.3,0.4-0.3,1.1,0.2,1.4c1.8,1.5,3.7,2.2,5.6,2.2s3.8-0.7,5.6-2.2c0.4-0.3,0.5-1,0.2-1.4    c-0.3-0.4-1-0.5-1.4-0.2c-3,2.4-5.8,2.4-8.8,0C45.2,47.9,44.6,47.9,44.2,48.4z"/>
</g>
</g>
<g id="moustache"/>
<g id="hair_gel"/>
<g id="shampoo"/>
<g id="mirror"/>
<g id="spray"/>
<g id="apron"/>
<g id="chair"/>
<g id="mask"/>
</svg>